<mxfile host="app.diagrams.net" modified="2022-10-22T13:51:34.950Z" agent="5.0 (Windows NT 10.0; Win64; x64) AppleWebKit/537.36 (KHTML, like Gecko) Chrome/106.0.0.0 Safari/537.36" etag="9YS1qedrLmOAkokG28Ch" version="20.5.1" type="github">
  <diagram id="y7Tzce6V953UnGqiBODy" name="第 1 页">
    <mxGraphModel dx="1209" dy="642" grid="1" gridSize="10" guides="1" tooltips="1" connect="1" arrows="1" fold="1" page="1" pageScale="1" pageWidth="827" pageHeight="1169" math="0" shadow="0">
      <root>
        <mxCell id="0" />
        <mxCell id="1" parent="0" />
        <mxCell id="uJVuhmTzln1EmqS2y94v-262" value="" style="rounded=0;whiteSpace=wrap;html=1;fillColor=#F7F7F7;" vertex="1" parent="1">
          <mxGeometry x="475" y="244.5" width="99" height="231" as="geometry" />
        </mxCell>
        <mxCell id="uJVuhmTzln1EmqS2y94v-261" value="" style="rounded=0;whiteSpace=wrap;html=1;fillColor=#F7F7F7;" vertex="1" parent="1">
          <mxGeometry x="379" y="244.5" width="95" height="191" as="geometry" />
        </mxCell>
        <mxCell id="uJVuhmTzln1EmqS2y94v-170" value="" style="rounded=0;whiteSpace=wrap;html=1;fillColor=#F7F7F7;" vertex="1" parent="1">
          <mxGeometry x="275" y="245.5" width="99" height="149" as="geometry" />
        </mxCell>
        <mxCell id="uJVuhmTzln1EmqS2y94v-167" value="" style="rounded=0;whiteSpace=wrap;html=1;fillColor=#F7F7F7;" vertex="1" parent="1">
          <mxGeometry x="174" y="247.5" width="98" height="70" as="geometry" />
        </mxCell>
        <mxCell id="uJVuhmTzln1EmqS2y94v-162" value="" style="rounded=0;whiteSpace=wrap;html=1;fillColor=#FFFFFF;" vertex="1" parent="1">
          <mxGeometry x="42" y="160" width="755" height="480" as="geometry" />
        </mxCell>
        <mxCell id="uJVuhmTzln1EmqS2y94v-161" value="" style="rounded=0;whiteSpace=wrap;html=1;fillColor=#F7F7F7;" vertex="1" parent="1">
          <mxGeometry x="90" y="452" width="335" height="155" as="geometry" />
        </mxCell>
        <mxCell id="uJVuhmTzln1EmqS2y94v-1" value="" style="rounded=0;whiteSpace=wrap;html=1;fillColor=#99FFFF;" vertex="1" parent="1">
          <mxGeometry x="83" y="180" width="20" height="210" as="geometry" />
        </mxCell>
        <mxCell id="uJVuhmTzln1EmqS2y94v-5" value="" style="shape=trapezoid;perimeter=trapezoidPerimeter;whiteSpace=wrap;html=1;fixedSize=1;direction=south;fillColor=#99FFFF;" vertex="1" parent="1">
          <mxGeometry x="133" y="237.5" width="30" height="95" as="geometry" />
        </mxCell>
        <mxCell id="uJVuhmTzln1EmqS2y94v-8" value="" style="endArrow=classic;html=1;rounded=0;exitX=1;exitY=0.5;exitDx=0;exitDy=0;" edge="1" parent="1">
          <mxGeometry width="50" height="50" relative="1" as="geometry">
            <mxPoint x="103" y="284.5" as="sourcePoint" />
            <mxPoint x="133" y="284.5" as="targetPoint" />
          </mxGeometry>
        </mxCell>
        <mxCell id="uJVuhmTzln1EmqS2y94v-20" value="" style="endArrow=classic;html=1;rounded=0;exitX=1;exitY=0.5;exitDx=0;exitDy=0;entryX=0;entryY=0.5;entryDx=0;entryDy=0;" edge="1" parent="1" target="uJVuhmTzln1EmqS2y94v-95">
          <mxGeometry width="50" height="50" relative="1" as="geometry">
            <mxPoint x="672" y="284.5" as="sourcePoint" />
            <mxPoint x="692" y="285" as="targetPoint" />
          </mxGeometry>
        </mxCell>
        <mxCell id="uJVuhmTzln1EmqS2y94v-62" style="edgeStyle=orthogonalEdgeStyle;rounded=0;orthogonalLoop=1;jettySize=auto;html=1;exitX=1;exitY=0.5;exitDx=0;exitDy=0;entryX=0;entryY=0.5;entryDx=0;entryDy=0;" edge="1" parent="1" source="uJVuhmTzln1EmqS2y94v-29" target="uJVuhmTzln1EmqS2y94v-52">
          <mxGeometry relative="1" as="geometry" />
        </mxCell>
        <mxCell id="uJVuhmTzln1EmqS2y94v-29" value="" style="rounded=0;whiteSpace=wrap;html=1;fillColor=#99FFFF;" vertex="1" parent="1">
          <mxGeometry x="253.5" y="347.5" width="15" height="40" as="geometry" />
        </mxCell>
        <mxCell id="uJVuhmTzln1EmqS2y94v-41" style="edgeStyle=orthogonalEdgeStyle;rounded=0;orthogonalLoop=1;jettySize=auto;html=1;exitX=1;exitY=0.5;exitDx=0;exitDy=0;entryX=0;entryY=0.5;entryDx=0;entryDy=0;" edge="1" parent="1" source="uJVuhmTzln1EmqS2y94v-30" target="uJVuhmTzln1EmqS2y94v-31">
          <mxGeometry relative="1" as="geometry" />
        </mxCell>
        <mxCell id="uJVuhmTzln1EmqS2y94v-30" value="" style="rounded=0;whiteSpace=wrap;html=1;fillColor=#99FFFF;" vertex="1" parent="1">
          <mxGeometry x="226" y="252.5" width="10" height="60" as="geometry" />
        </mxCell>
        <mxCell id="uJVuhmTzln1EmqS2y94v-42" style="edgeStyle=orthogonalEdgeStyle;rounded=0;orthogonalLoop=1;jettySize=auto;html=1;exitX=1;exitY=0.5;exitDx=0;exitDy=0;entryX=0;entryY=0.5;entryDx=0;entryDy=0;" edge="1" parent="1" source="uJVuhmTzln1EmqS2y94v-31" target="uJVuhmTzln1EmqS2y94v-32">
          <mxGeometry relative="1" as="geometry" />
        </mxCell>
        <mxCell id="uJVuhmTzln1EmqS2y94v-31" value="" style="rounded=0;whiteSpace=wrap;html=1;fillColor=#99FFFF;" vertex="1" parent="1">
          <mxGeometry x="256" y="252.5" width="10" height="60" as="geometry" />
        </mxCell>
        <mxCell id="uJVuhmTzln1EmqS2y94v-43" style="edgeStyle=orthogonalEdgeStyle;rounded=0;orthogonalLoop=1;jettySize=auto;html=1;exitX=1;exitY=0.5;exitDx=0;exitDy=0;entryX=0;entryY=0.5;entryDx=0;entryDy=0;" edge="1" parent="1" source="uJVuhmTzln1EmqS2y94v-32" target="uJVuhmTzln1EmqS2y94v-33">
          <mxGeometry relative="1" as="geometry" />
        </mxCell>
        <mxCell id="uJVuhmTzln1EmqS2y94v-32" value="" style="rounded=0;whiteSpace=wrap;html=1;fillColor=#99FFFF;" vertex="1" parent="1">
          <mxGeometry x="286" y="252.5" width="10" height="60" as="geometry" />
        </mxCell>
        <mxCell id="uJVuhmTzln1EmqS2y94v-44" style="edgeStyle=orthogonalEdgeStyle;rounded=0;orthogonalLoop=1;jettySize=auto;html=1;exitX=1;exitY=0.5;exitDx=0;exitDy=0;entryX=0;entryY=0.5;entryDx=0;entryDy=0;" edge="1" parent="1" source="uJVuhmTzln1EmqS2y94v-33" target="uJVuhmTzln1EmqS2y94v-34">
          <mxGeometry relative="1" as="geometry" />
        </mxCell>
        <mxCell id="uJVuhmTzln1EmqS2y94v-33" value="" style="rounded=0;whiteSpace=wrap;html=1;fillColor=#99FFFF;" vertex="1" parent="1">
          <mxGeometry x="316" y="252.5" width="10" height="60" as="geometry" />
        </mxCell>
        <mxCell id="uJVuhmTzln1EmqS2y94v-51" style="edgeStyle=orthogonalEdgeStyle;rounded=0;orthogonalLoop=1;jettySize=auto;html=1;exitX=1;exitY=0.5;exitDx=0;exitDy=0;entryX=0;entryY=0.5;entryDx=0;entryDy=0;" edge="1" parent="1" source="uJVuhmTzln1EmqS2y94v-34" target="uJVuhmTzln1EmqS2y94v-46">
          <mxGeometry relative="1" as="geometry" />
        </mxCell>
        <mxCell id="uJVuhmTzln1EmqS2y94v-34" value="" style="rounded=0;whiteSpace=wrap;html=1;fillColor=#99FFFF;" vertex="1" parent="1">
          <mxGeometry x="358.5" y="252.5" width="10" height="60" as="geometry" />
        </mxCell>
        <mxCell id="uJVuhmTzln1EmqS2y94v-45" style="edgeStyle=orthogonalEdgeStyle;rounded=0;orthogonalLoop=1;jettySize=auto;html=1;exitX=1;exitY=0.5;exitDx=0;exitDy=0;entryX=0;entryY=0.5;entryDx=0;entryDy=0;" edge="1" parent="1" source="uJVuhmTzln1EmqS2y94v-46" target="uJVuhmTzln1EmqS2y94v-48">
          <mxGeometry relative="1" as="geometry" />
        </mxCell>
        <mxCell id="uJVuhmTzln1EmqS2y94v-46" value="" style="rounded=0;whiteSpace=wrap;html=1;fillColor=#99FFFF;" vertex="1" parent="1">
          <mxGeometry x="382.5" y="252.5" width="10" height="60" as="geometry" />
        </mxCell>
        <mxCell id="uJVuhmTzln1EmqS2y94v-48" value="" style="rounded=0;whiteSpace=wrap;html=1;fillColor=#99FFFF;" vertex="1" parent="1">
          <mxGeometry x="412.5" y="252.5" width="10" height="60" as="geometry" />
        </mxCell>
        <mxCell id="uJVuhmTzln1EmqS2y94v-49" value="" style="rounded=0;whiteSpace=wrap;html=1;fillColor=#99FFFF;" vertex="1" parent="1">
          <mxGeometry x="588.5" y="255" width="10" height="60" as="geometry" />
        </mxCell>
        <mxCell id="uJVuhmTzln1EmqS2y94v-63" style="edgeStyle=orthogonalEdgeStyle;rounded=0;orthogonalLoop=1;jettySize=auto;html=1;exitX=1;exitY=0.5;exitDx=0;exitDy=0;entryX=0;entryY=0.5;entryDx=0;entryDy=0;" edge="1" parent="1" source="uJVuhmTzln1EmqS2y94v-52" target="uJVuhmTzln1EmqS2y94v-53">
          <mxGeometry relative="1" as="geometry" />
        </mxCell>
        <mxCell id="uJVuhmTzln1EmqS2y94v-52" value="" style="rounded=0;whiteSpace=wrap;html=1;fillColor=#99FFFF;" vertex="1" parent="1">
          <mxGeometry x="283.5" y="347.5" width="15" height="40" as="geometry" />
        </mxCell>
        <mxCell id="uJVuhmTzln1EmqS2y94v-64" style="edgeStyle=orthogonalEdgeStyle;rounded=0;orthogonalLoop=1;jettySize=auto;html=1;exitX=1;exitY=0.5;exitDx=0;exitDy=0;entryX=0;entryY=0.5;entryDx=0;entryDy=0;" edge="1" parent="1" source="uJVuhmTzln1EmqS2y94v-53" target="uJVuhmTzln1EmqS2y94v-54">
          <mxGeometry relative="1" as="geometry" />
        </mxCell>
        <mxCell id="uJVuhmTzln1EmqS2y94v-53" value="" style="rounded=0;whiteSpace=wrap;html=1;fillColor=#99FFFF;" vertex="1" parent="1">
          <mxGeometry x="313.5" y="347.5" width="15" height="40" as="geometry" />
        </mxCell>
        <mxCell id="uJVuhmTzln1EmqS2y94v-65" style="edgeStyle=orthogonalEdgeStyle;rounded=0;orthogonalLoop=1;jettySize=auto;html=1;exitX=1;exitY=0.5;exitDx=0;exitDy=0;entryX=0;entryY=0.5;entryDx=0;entryDy=0;" edge="1" parent="1" source="uJVuhmTzln1EmqS2y94v-54" target="uJVuhmTzln1EmqS2y94v-55">
          <mxGeometry relative="1" as="geometry" />
        </mxCell>
        <mxCell id="uJVuhmTzln1EmqS2y94v-54" value="" style="rounded=0;whiteSpace=wrap;html=1;fillColor=#99FFFF;" vertex="1" parent="1">
          <mxGeometry x="356" y="347.5" width="15" height="40" as="geometry" />
        </mxCell>
        <mxCell id="uJVuhmTzln1EmqS2y94v-66" style="edgeStyle=orthogonalEdgeStyle;rounded=0;orthogonalLoop=1;jettySize=auto;html=1;exitX=1;exitY=0.5;exitDx=0;exitDy=0;entryX=0;entryY=0.5;entryDx=0;entryDy=0;" edge="1" parent="1" source="uJVuhmTzln1EmqS2y94v-55" target="uJVuhmTzln1EmqS2y94v-56">
          <mxGeometry relative="1" as="geometry" />
        </mxCell>
        <mxCell id="uJVuhmTzln1EmqS2y94v-55" value="" style="rounded=0;whiteSpace=wrap;html=1;fillColor=#99FFFF;" vertex="1" parent="1">
          <mxGeometry x="382.5" y="347.5" width="15" height="40" as="geometry" />
        </mxCell>
        <mxCell id="uJVuhmTzln1EmqS2y94v-56" value="" style="rounded=0;whiteSpace=wrap;html=1;fillColor=#99FFFF;" vertex="1" parent="1">
          <mxGeometry x="410" y="347.5" width="15" height="40" as="geometry" />
        </mxCell>
        <mxCell id="uJVuhmTzln1EmqS2y94v-71" style="edgeStyle=orthogonalEdgeStyle;rounded=0;orthogonalLoop=1;jettySize=auto;html=1;exitX=1;exitY=0.5;exitDx=0;exitDy=0;entryX=0;entryY=0.5;entryDx=0;entryDy=0;" edge="1" parent="1" source="uJVuhmTzln1EmqS2y94v-57" target="uJVuhmTzln1EmqS2y94v-69">
          <mxGeometry relative="1" as="geometry" />
        </mxCell>
        <mxCell id="uJVuhmTzln1EmqS2y94v-57" value="" style="rounded=0;whiteSpace=wrap;html=1;fillColor=#99FFFF;" vertex="1" parent="1">
          <mxGeometry x="356" y="407.5" width="15" height="20" as="geometry" />
        </mxCell>
        <mxCell id="uJVuhmTzln1EmqS2y94v-61" value="" style="endArrow=classic;html=1;rounded=0;exitX=1;exitY=0.5;exitDx=0;exitDy=0;entryX=0;entryY=0.5;entryDx=0;entryDy=0;" edge="1" parent="1" source="uJVuhmTzln1EmqS2y94v-30" target="uJVuhmTzln1EmqS2y94v-29">
          <mxGeometry width="50" height="50" relative="1" as="geometry">
            <mxPoint x="396" y="347.5" as="sourcePoint" />
            <mxPoint x="446" y="297.5" as="targetPoint" />
          </mxGeometry>
        </mxCell>
        <mxCell id="uJVuhmTzln1EmqS2y94v-72" style="edgeStyle=orthogonalEdgeStyle;rounded=0;orthogonalLoop=1;jettySize=auto;html=1;exitX=1;exitY=0.5;exitDx=0;exitDy=0;entryX=0;entryY=0.5;entryDx=0;entryDy=0;" edge="1" parent="1" source="uJVuhmTzln1EmqS2y94v-69" target="uJVuhmTzln1EmqS2y94v-70">
          <mxGeometry relative="1" as="geometry" />
        </mxCell>
        <mxCell id="uJVuhmTzln1EmqS2y94v-69" value="" style="rounded=0;whiteSpace=wrap;html=1;fillColor=#99FFFF;" vertex="1" parent="1">
          <mxGeometry x="382.5" y="407.5" width="15" height="20" as="geometry" />
        </mxCell>
        <mxCell id="uJVuhmTzln1EmqS2y94v-70" value="" style="rounded=0;whiteSpace=wrap;html=1;fillColor=#99FFFF;" vertex="1" parent="1">
          <mxGeometry x="410" y="407.5" width="15" height="20" as="geometry" />
        </mxCell>
        <mxCell id="uJVuhmTzln1EmqS2y94v-118" style="edgeStyle=orthogonalEdgeStyle;rounded=0;orthogonalLoop=1;jettySize=auto;html=1;exitX=1;exitY=0.5;exitDx=0;exitDy=0;entryX=0;entryY=0.5;entryDx=0;entryDy=0;" edge="1" parent="1" source="uJVuhmTzln1EmqS2y94v-75" target="uJVuhmTzln1EmqS2y94v-115">
          <mxGeometry relative="1" as="geometry" />
        </mxCell>
        <mxCell id="uJVuhmTzln1EmqS2y94v-75" value="" style="rounded=0;whiteSpace=wrap;html=1;fillColor=#99FFFF;" vertex="1" parent="1">
          <mxGeometry x="662" y="420" width="10" height="100" as="geometry" />
        </mxCell>
        <mxCell id="uJVuhmTzln1EmqS2y94v-76" value="" style="endArrow=classic;html=1;rounded=0;exitX=1;exitY=0.5;exitDx=0;exitDy=0;entryX=0;entryY=0.5;entryDx=0;entryDy=0;" edge="1" parent="1" source="uJVuhmTzln1EmqS2y94v-33" target="uJVuhmTzln1EmqS2y94v-54">
          <mxGeometry width="50" height="50" relative="1" as="geometry">
            <mxPoint x="396" y="347.5" as="sourcePoint" />
            <mxPoint x="446" y="297.5" as="targetPoint" />
          </mxGeometry>
        </mxCell>
        <mxCell id="uJVuhmTzln1EmqS2y94v-77" value="" style="endArrow=classic;html=1;rounded=0;exitX=1;exitY=0.5;exitDx=0;exitDy=0;entryX=0;entryY=0.5;entryDx=0;entryDy=0;" edge="1" parent="1" source="uJVuhmTzln1EmqS2y94v-33" target="uJVuhmTzln1EmqS2y94v-57">
          <mxGeometry width="50" height="50" relative="1" as="geometry">
            <mxPoint x="396" y="347.5" as="sourcePoint" />
            <mxPoint x="446" y="297.5" as="targetPoint" />
          </mxGeometry>
        </mxCell>
        <mxCell id="uJVuhmTzln1EmqS2y94v-78" value="" style="endArrow=classic;html=1;rounded=0;exitX=1;exitY=0.5;exitDx=0;exitDy=0;entryX=0;entryY=0.5;entryDx=0;entryDy=0;" edge="1" parent="1" source="uJVuhmTzln1EmqS2y94v-53" target="uJVuhmTzln1EmqS2y94v-34">
          <mxGeometry width="50" height="50" relative="1" as="geometry">
            <mxPoint x="396" y="347.5" as="sourcePoint" />
            <mxPoint x="446" y="297.5" as="targetPoint" />
          </mxGeometry>
        </mxCell>
        <mxCell id="uJVuhmTzln1EmqS2y94v-79" value="" style="endArrow=classic;html=1;rounded=0;exitX=1;exitY=0.5;exitDx=0;exitDy=0;entryX=0;entryY=0.5;entryDx=0;entryDy=0;" edge="1" parent="1" source="uJVuhmTzln1EmqS2y94v-53" target="uJVuhmTzln1EmqS2y94v-57">
          <mxGeometry width="50" height="50" relative="1" as="geometry">
            <mxPoint x="396" y="347.5" as="sourcePoint" />
            <mxPoint x="446" y="297.5" as="targetPoint" />
          </mxGeometry>
        </mxCell>
        <mxCell id="uJVuhmTzln1EmqS2y94v-89" value="" style="endArrow=block;dashed=1;endFill=0;endSize=12;html=1;rounded=0;" edge="1" parent="1">
          <mxGeometry width="160" relative="1" as="geometry">
            <mxPoint x="598.5" y="284.5" as="sourcePoint" />
            <mxPoint x="662" y="285" as="targetPoint" />
          </mxGeometry>
        </mxCell>
        <mxCell id="uJVuhmTzln1EmqS2y94v-90" value="" style="endArrow=none;dashed=1;html=1;dashPattern=1 3;strokeWidth=2;rounded=0;" edge="1" parent="1">
          <mxGeometry width="50" height="50" relative="1" as="geometry">
            <mxPoint x="622" y="620" as="sourcePoint" />
            <mxPoint x="622" y="170" as="targetPoint" />
          </mxGeometry>
        </mxCell>
        <mxCell id="uJVuhmTzln1EmqS2y94v-91" value="" style="rounded=0;whiteSpace=wrap;html=1;fillColor=#99FFFF;" vertex="1" parent="1">
          <mxGeometry x="662" y="255" width="10" height="60" as="geometry" />
        </mxCell>
        <mxCell id="uJVuhmTzln1EmqS2y94v-95" value="" style="rounded=0;whiteSpace=wrap;html=1;fillColor=#99FFFF;" vertex="1" parent="1">
          <mxGeometry x="702" y="255" width="10" height="60" as="geometry" />
        </mxCell>
        <mxCell id="uJVuhmTzln1EmqS2y94v-100" value="" style="shape=waypoint;sketch=0;fillStyle=solid;size=6;pointerEvents=1;points=[];fillColor=none;resizable=0;rotatable=0;perimeter=centerPerimeter;snapToPoint=1;" vertex="1" parent="1">
          <mxGeometry x="732" y="265" width="40" height="40" as="geometry" />
        </mxCell>
        <mxCell id="uJVuhmTzln1EmqS2y94v-104" value="" style="endArrow=block;dashed=1;endFill=0;endSize=12;html=1;rounded=0;exitX=0.5;exitY=1;exitDx=0;exitDy=0;" edge="1" parent="1" source="uJVuhmTzln1EmqS2y94v-91">
          <mxGeometry width="160" relative="1" as="geometry">
            <mxPoint x="682" y="380" as="sourcePoint" />
            <mxPoint x="667" y="350" as="targetPoint" />
          </mxGeometry>
        </mxCell>
        <mxCell id="uJVuhmTzln1EmqS2y94v-105" value="" style="ellipse;whiteSpace=wrap;html=1;aspect=fixed;" vertex="1" parent="1">
          <mxGeometry x="657" y="350" width="20" height="20" as="geometry" />
        </mxCell>
        <mxCell id="uJVuhmTzln1EmqS2y94v-106" value="" style="endArrow=none;dashed=1;html=1;dashPattern=1 3;strokeWidth=2;rounded=0;entryX=0.5;entryY=1;entryDx=0;entryDy=0;" edge="1" parent="1" target="uJVuhmTzln1EmqS2y94v-95">
          <mxGeometry width="50" height="50" relative="1" as="geometry">
            <mxPoint x="707" y="360" as="sourcePoint" />
            <mxPoint x="782" y="345" as="targetPoint" />
          </mxGeometry>
        </mxCell>
        <mxCell id="uJVuhmTzln1EmqS2y94v-107" value="" style="endArrow=block;dashed=1;endFill=0;endSize=12;html=1;rounded=0;entryX=1;entryY=0.5;entryDx=0;entryDy=0;" edge="1" parent="1" target="uJVuhmTzln1EmqS2y94v-105">
          <mxGeometry width="160" relative="1" as="geometry">
            <mxPoint x="702" y="360" as="sourcePoint" />
            <mxPoint x="852" y="449.5" as="targetPoint" />
          </mxGeometry>
        </mxCell>
        <mxCell id="uJVuhmTzln1EmqS2y94v-108" value="" style="endArrow=classic;html=1;rounded=0;exitX=0.5;exitY=1;exitDx=0;exitDy=0;startArrow=none;" edge="1" parent="1" source="uJVuhmTzln1EmqS2y94v-109">
          <mxGeometry width="50" height="50" relative="1" as="geometry">
            <mxPoint x="742" y="430" as="sourcePoint" />
            <mxPoint x="667" y="420" as="targetPoint" />
          </mxGeometry>
        </mxCell>
        <mxCell id="uJVuhmTzln1EmqS2y94v-109" value="" style="shape=trapezoid;perimeter=trapezoidPerimeter;whiteSpace=wrap;html=1;fixedSize=1;fillColor=#FFB366;" vertex="1" parent="1">
          <mxGeometry x="637" y="380" width="60" height="20" as="geometry" />
        </mxCell>
        <mxCell id="uJVuhmTzln1EmqS2y94v-110" value="" style="endArrow=none;html=1;rounded=0;exitX=0.5;exitY=1;exitDx=0;exitDy=0;startArrow=none;" edge="1" parent="1" source="uJVuhmTzln1EmqS2y94v-158" target="uJVuhmTzln1EmqS2y94v-109">
          <mxGeometry width="50" height="50" relative="1" as="geometry">
            <mxPoint x="667" y="370" as="sourcePoint" />
            <mxPoint x="667" y="420" as="targetPoint" />
          </mxGeometry>
        </mxCell>
        <mxCell id="uJVuhmTzln1EmqS2y94v-111" value="" style="rounded=0;whiteSpace=wrap;html=1;fillColor=#99FFFF;" vertex="1" parent="1">
          <mxGeometry x="682" y="420" width="10" height="100" as="geometry" />
        </mxCell>
        <mxCell id="uJVuhmTzln1EmqS2y94v-114" value="" style="rounded=0;whiteSpace=wrap;html=1;fillColor=#99FFFF;" vertex="1" parent="1">
          <mxGeometry x="702" y="420" width="10" height="100" as="geometry" />
        </mxCell>
        <mxCell id="uJVuhmTzln1EmqS2y94v-115" value="" style="rounded=0;whiteSpace=wrap;html=1;fillColor=#99FFFF;" vertex="1" parent="1">
          <mxGeometry x="722" y="420" width="10" height="100" as="geometry" />
        </mxCell>
        <mxCell id="uJVuhmTzln1EmqS2y94v-119" value="" style="endArrow=none;html=1;rounded=0;entryX=0.5;entryY=0.492;entryDx=0;entryDy=0;entryPerimeter=0;startArrow=none;" edge="1" parent="1">
          <mxGeometry width="50" height="50" relative="1" as="geometry">
            <mxPoint x="782" y="470" as="sourcePoint" />
            <mxPoint x="782" y="469.5" as="targetPoint" />
          </mxGeometry>
        </mxCell>
        <mxCell id="uJVuhmTzln1EmqS2y94v-120" value="" style="shape=waypoint;sketch=0;fillStyle=solid;size=6;pointerEvents=1;points=[];fillColor=none;resizable=0;rotatable=0;perimeter=centerPerimeter;snapToPoint=1;" vertex="1" parent="1">
          <mxGeometry x="742" y="450" width="40" height="40" as="geometry" />
        </mxCell>
        <mxCell id="uJVuhmTzln1EmqS2y94v-121" value="" style="endArrow=none;html=1;rounded=0;" edge="1" parent="1">
          <mxGeometry width="50" height="50" relative="1" as="geometry">
            <mxPoint x="732" y="469.5" as="sourcePoint" />
            <mxPoint x="762" y="470" as="targetPoint" />
          </mxGeometry>
        </mxCell>
        <mxCell id="uJVuhmTzln1EmqS2y94v-123" value="" style="endArrow=none;html=1;rounded=0;exitX=1;exitY=0.5;exitDx=0;exitDy=0;" edge="1" parent="1" source="uJVuhmTzln1EmqS2y94v-95">
          <mxGeometry width="50" height="50" relative="1" as="geometry">
            <mxPoint x="802" y="332.5" as="sourcePoint" />
            <mxPoint x="752" y="285" as="targetPoint" />
          </mxGeometry>
        </mxCell>
        <mxCell id="uJVuhmTzln1EmqS2y94v-125" value="" style="rounded=0;whiteSpace=wrap;html=1;fillColor=#99FFFF;" vertex="1" parent="1">
          <mxGeometry x="119" y="457" width="10" height="60" as="geometry" />
        </mxCell>
        <mxCell id="uJVuhmTzln1EmqS2y94v-126" value="" style="endArrow=classic;html=1;rounded=0;" edge="1" parent="1">
          <mxGeometry width="50" height="50" relative="1" as="geometry">
            <mxPoint x="177" y="486.5" as="sourcePoint" />
            <mxPoint x="207" y="486.5" as="targetPoint" />
          </mxGeometry>
        </mxCell>
        <mxCell id="uJVuhmTzln1EmqS2y94v-127" value="" style="endArrow=classic;html=1;rounded=0;" edge="1" parent="1">
          <mxGeometry width="50" height="50" relative="1" as="geometry">
            <mxPoint x="256" y="472" as="sourcePoint" />
            <mxPoint x="286" y="502" as="targetPoint" />
          </mxGeometry>
        </mxCell>
        <mxCell id="uJVuhmTzln1EmqS2y94v-128" value="" style="endArrow=classic;html=1;rounded=0;" edge="1" parent="1">
          <mxGeometry width="50" height="50" relative="1" as="geometry">
            <mxPoint x="333.5" y="502" as="sourcePoint" />
            <mxPoint x="363.5" y="472" as="targetPoint" />
          </mxGeometry>
        </mxCell>
        <mxCell id="uJVuhmTzln1EmqS2y94v-130" value="" style="endArrow=block;dashed=1;endFill=0;endSize=12;html=1;rounded=0;" edge="1" parent="1">
          <mxGeometry width="160" relative="1" as="geometry">
            <mxPoint x="104" y="569" as="sourcePoint" />
            <mxPoint x="142" y="569" as="targetPoint" />
          </mxGeometry>
        </mxCell>
        <mxCell id="uJVuhmTzln1EmqS2y94v-131" value="" style="shape=waypoint;sketch=0;fillStyle=solid;size=6;pointerEvents=1;points=[];fillColor=none;resizable=0;rotatable=0;perimeter=centerPerimeter;snapToPoint=1;" vertex="1" parent="1">
          <mxGeometry x="174" y="550" width="40" height="40" as="geometry" />
        </mxCell>
        <mxCell id="uJVuhmTzln1EmqS2y94v-133" value="" style="ellipse;whiteSpace=wrap;html=1;aspect=fixed;" vertex="1" parent="1">
          <mxGeometry x="344.5" y="559" width="20" height="20" as="geometry" />
        </mxCell>
        <mxCell id="uJVuhmTzln1EmqS2y94v-134" value="feature&lt;br&gt;maps" style="text;html=1;resizable=0;autosize=1;align=center;verticalAlign=middle;points=[];fillColor=none;strokeColor=none;rounded=0;" vertex="1" parent="1">
          <mxGeometry x="122" y="467" width="60" height="40" as="geometry" />
        </mxCell>
        <mxCell id="uJVuhmTzln1EmqS2y94v-137" value="conv.&lt;br&gt;blocks" style="text;html=1;resizable=0;autosize=1;align=center;verticalAlign=middle;points=[];fillColor=none;strokeColor=none;rounded=0;" vertex="1" parent="1">
          <mxGeometry x="202" y="467" width="60" height="40" as="geometry" />
        </mxCell>
        <mxCell id="uJVuhmTzln1EmqS2y94v-138" value="strided&lt;br&gt;conv." style="text;html=1;resizable=0;autosize=1;align=center;verticalAlign=middle;points=[];fillColor=none;strokeColor=none;rounded=0;" vertex="1" parent="1">
          <mxGeometry x="280" y="467" width="60" height="40" as="geometry" />
        </mxCell>
        <mxCell id="uJVuhmTzln1EmqS2y94v-141" value="upsample" style="text;html=1;resizable=0;autosize=1;align=center;verticalAlign=middle;points=[];fillColor=none;strokeColor=none;rounded=0;" vertex="1" parent="1">
          <mxGeometry x="354" y="473" width="80" height="30" as="geometry" />
        </mxCell>
        <mxCell id="uJVuhmTzln1EmqS2y94v-142" value="identity" style="text;html=1;resizable=0;autosize=1;align=center;verticalAlign=middle;points=[];fillColor=none;strokeColor=none;rounded=0;" vertex="1" parent="1">
          <mxGeometry x="134" y="554" width="60" height="30" as="geometry" />
        </mxCell>
        <mxCell id="uJVuhmTzln1EmqS2y94v-143" value="loss" style="text;html=1;resizable=0;autosize=1;align=center;verticalAlign=middle;points=[];fillColor=none;strokeColor=none;rounded=0;" vertex="1" parent="1">
          <mxGeometry x="200" y="555" width="40" height="30" as="geometry" />
        </mxCell>
        <mxCell id="uJVuhmTzln1EmqS2y94v-148" value="deconv.&lt;br&gt;module" style="text;html=1;resizable=0;autosize=1;align=center;verticalAlign=middle;points=[];fillColor=none;strokeColor=none;rounded=0;" vertex="1" parent="1">
          <mxGeometry x="288" y="548" width="60" height="40" as="geometry" />
        </mxCell>
        <mxCell id="uJVuhmTzln1EmqS2y94v-149" value="" style="endArrow=classic;html=1;rounded=0;startArrow=none;" edge="1" parent="1">
          <mxGeometry width="50" height="50" relative="1" as="geometry">
            <mxPoint x="264" y="573" as="sourcePoint" />
            <mxPoint x="264" y="595" as="targetPoint" />
          </mxGeometry>
        </mxCell>
        <mxCell id="uJVuhmTzln1EmqS2y94v-150" value="" style="shape=trapezoid;perimeter=trapezoidPerimeter;whiteSpace=wrap;html=1;fixedSize=1;fillColor=#FFB366;" vertex="1" parent="1">
          <mxGeometry x="234" y="555" width="60" height="20" as="geometry" />
        </mxCell>
        <mxCell id="uJVuhmTzln1EmqS2y94v-151" value="" style="endArrow=none;html=1;rounded=0;" edge="1" parent="1" target="uJVuhmTzln1EmqS2y94v-150">
          <mxGeometry width="50" height="50" relative="1" as="geometry">
            <mxPoint x="264" y="547" as="sourcePoint" />
            <mxPoint x="264" y="597" as="targetPoint" />
          </mxGeometry>
        </mxCell>
        <mxCell id="uJVuhmTzln1EmqS2y94v-152" value="concat." style="text;html=1;resizable=0;autosize=1;align=center;verticalAlign=middle;points=[];fillColor=none;strokeColor=none;rounded=0;" vertex="1" parent="1">
          <mxGeometry x="362.5" y="554" width="60" height="30" as="geometry" />
        </mxCell>
        <mxCell id="uJVuhmTzln1EmqS2y94v-153" value="Image" style="text;html=1;resizable=0;autosize=1;align=center;verticalAlign=middle;points=[];fillColor=none;strokeColor=none;rounded=0;rotation=270;" vertex="1" parent="1">
          <mxGeometry x="63" y="269" width="60" height="30" as="geometry" />
        </mxCell>
        <mxCell id="uJVuhmTzln1EmqS2y94v-156" value="Stem" style="text;html=1;resizable=0;autosize=1;align=center;verticalAlign=middle;points=[];fillColor=none;strokeColor=none;rounded=0;rotation=270;" vertex="1" parent="1">
          <mxGeometry x="123" y="269" width="50" height="30" as="geometry" />
        </mxCell>
        <mxCell id="uJVuhmTzln1EmqS2y94v-157" value="C" style="text;html=1;resizable=0;autosize=1;align=center;verticalAlign=middle;points=[];fillColor=none;strokeColor=none;rounded=0;" vertex="1" parent="1">
          <mxGeometry x="339.5" y="555" width="30" height="30" as="geometry" />
        </mxCell>
        <mxCell id="uJVuhmTzln1EmqS2y94v-158" value="C" style="text;html=1;resizable=0;autosize=1;align=center;verticalAlign=middle;points=[];fillColor=none;strokeColor=none;rounded=0;" vertex="1" parent="1">
          <mxGeometry x="652" y="345" width="30" height="30" as="geometry" />
        </mxCell>
        <mxCell id="uJVuhmTzln1EmqS2y94v-159" value="" style="endArrow=none;html=1;rounded=0;exitX=0.5;exitY=1;exitDx=0;exitDy=0;" edge="1" parent="1" source="uJVuhmTzln1EmqS2y94v-105" target="uJVuhmTzln1EmqS2y94v-158">
          <mxGeometry width="50" height="50" relative="1" as="geometry">
            <mxPoint x="667" y="370" as="sourcePoint" />
            <mxPoint x="667" y="380" as="targetPoint" />
          </mxGeometry>
        </mxCell>
        <mxCell id="uJVuhmTzln1EmqS2y94v-163" value="1/4" style="text;html=1;resizable=0;autosize=1;align=center;verticalAlign=middle;points=[];fillColor=none;strokeColor=none;rounded=0;" vertex="1" parent="1">
          <mxGeometry x="108" y="87" width="40" height="30" as="geometry" />
        </mxCell>
        <mxCell id="uJVuhmTzln1EmqS2y94v-165" style="edgeStyle=orthogonalEdgeStyle;rounded=0;orthogonalLoop=1;jettySize=auto;html=1;exitX=1;exitY=0.5;exitDx=0;exitDy=0;entryX=0;entryY=0.5;entryDx=0;entryDy=0;" edge="1" parent="1" source="uJVuhmTzln1EmqS2y94v-166">
          <mxGeometry relative="1" as="geometry">
            <mxPoint x="226" y="282.5" as="targetPoint" />
          </mxGeometry>
        </mxCell>
        <mxCell id="uJVuhmTzln1EmqS2y94v-166" value="" style="rounded=0;whiteSpace=wrap;html=1;fillColor=#99FFFF;" vertex="1" parent="1">
          <mxGeometry x="196" y="252.5" width="10" height="60" as="geometry" />
        </mxCell>
        <mxCell id="uJVuhmTzln1EmqS2y94v-183" style="edgeStyle=orthogonalEdgeStyle;rounded=0;orthogonalLoop=1;jettySize=auto;html=1;exitX=1;exitY=0.5;exitDx=0;exitDy=0;entryX=0;entryY=0.5;entryDx=0;entryDy=0;" edge="1" parent="1" target="uJVuhmTzln1EmqS2y94v-184">
          <mxGeometry relative="1" as="geometry">
            <mxPoint x="422.5" y="282.5" as="sourcePoint" />
            <mxPoint x="442.5" y="282.5" as="targetPoint" />
          </mxGeometry>
        </mxCell>
        <mxCell id="uJVuhmTzln1EmqS2y94v-184" value="" style="rounded=0;whiteSpace=wrap;html=1;fillColor=#99FFFF;" vertex="1" parent="1">
          <mxGeometry x="455.5" y="252.5" width="10" height="60" as="geometry" />
        </mxCell>
        <mxCell id="uJVuhmTzln1EmqS2y94v-185" style="edgeStyle=orthogonalEdgeStyle;rounded=0;orthogonalLoop=1;jettySize=auto;html=1;exitX=1;exitY=0.5;exitDx=0;exitDy=0;entryX=0;entryY=0.5;entryDx=0;entryDy=0;" edge="1" parent="1" target="uJVuhmTzln1EmqS2y94v-186">
          <mxGeometry relative="1" as="geometry">
            <mxPoint x="425.5" y="367.5" as="sourcePoint" />
          </mxGeometry>
        </mxCell>
        <mxCell id="uJVuhmTzln1EmqS2y94v-186" value="" style="rounded=0;whiteSpace=wrap;html=1;fillColor=#99FFFF;" vertex="1" parent="1">
          <mxGeometry x="453" y="347.5" width="15" height="40" as="geometry" />
        </mxCell>
        <mxCell id="uJVuhmTzln1EmqS2y94v-187" style="edgeStyle=orthogonalEdgeStyle;rounded=0;orthogonalLoop=1;jettySize=auto;html=1;exitX=1;exitY=0.5;exitDx=0;exitDy=0;entryX=0;entryY=0.5;entryDx=0;entryDy=0;" edge="1" parent="1" target="uJVuhmTzln1EmqS2y94v-188">
          <mxGeometry relative="1" as="geometry">
            <mxPoint x="425.5" y="417.5" as="sourcePoint" />
          </mxGeometry>
        </mxCell>
        <mxCell id="uJVuhmTzln1EmqS2y94v-188" value="" style="rounded=0;whiteSpace=wrap;html=1;fillColor=#99FFFF;" vertex="1" parent="1">
          <mxGeometry x="453" y="407.5" width="15" height="20" as="geometry" />
        </mxCell>
        <mxCell id="uJVuhmTzln1EmqS2y94v-219" style="edgeStyle=orthogonalEdgeStyle;rounded=0;orthogonalLoop=1;jettySize=auto;html=1;exitX=1;exitY=0.5;exitDx=0;exitDy=0;" edge="1" parent="1">
          <mxGeometry relative="1" as="geometry">
            <mxPoint x="489" y="455.5" as="targetPoint" />
            <mxPoint x="457" y="455.5" as="sourcePoint" />
          </mxGeometry>
        </mxCell>
        <mxCell id="uJVuhmTzln1EmqS2y94v-190" value="" style="rounded=0;whiteSpace=wrap;html=1;fillColor=#99FFFF;" vertex="1" parent="1">
          <mxGeometry x="457.5" y="445.5" width="4.5" height="20" as="geometry" />
        </mxCell>
        <mxCell id="uJVuhmTzln1EmqS2y94v-204" style="edgeStyle=orthogonalEdgeStyle;rounded=0;orthogonalLoop=1;jettySize=auto;html=1;exitX=1;exitY=0.5;exitDx=0;exitDy=0;entryX=0;entryY=0.5;entryDx=0;entryDy=0;" edge="1" parent="1" target="uJVuhmTzln1EmqS2y94v-205">
          <mxGeometry relative="1" as="geometry">
            <mxPoint x="465.5" y="283.5" as="sourcePoint" />
          </mxGeometry>
        </mxCell>
        <mxCell id="uJVuhmTzln1EmqS2y94v-243" style="edgeStyle=orthogonalEdgeStyle;rounded=0;orthogonalLoop=1;jettySize=auto;html=1;exitX=1;exitY=0.5;exitDx=0;exitDy=0;" edge="1" parent="1" source="uJVuhmTzln1EmqS2y94v-205">
          <mxGeometry relative="1" as="geometry">
            <mxPoint x="514" y="283.5" as="targetPoint" />
          </mxGeometry>
        </mxCell>
        <mxCell id="uJVuhmTzln1EmqS2y94v-205" value="" style="rounded=0;whiteSpace=wrap;html=1;fillColor=#99FFFF;" vertex="1" parent="1">
          <mxGeometry x="485.5" y="253.5" width="10" height="60" as="geometry" />
        </mxCell>
        <mxCell id="uJVuhmTzln1EmqS2y94v-244" style="edgeStyle=orthogonalEdgeStyle;rounded=0;orthogonalLoop=1;jettySize=auto;html=1;exitX=1;exitY=0.5;exitDx=0;exitDy=0;entryX=0;entryY=0.5;entryDx=0;entryDy=0;" edge="1" parent="1" source="uJVuhmTzln1EmqS2y94v-207" target="uJVuhmTzln1EmqS2y94v-213">
          <mxGeometry relative="1" as="geometry" />
        </mxCell>
        <mxCell id="uJVuhmTzln1EmqS2y94v-207" value="" style="rounded=0;whiteSpace=wrap;html=1;fillColor=#99FFFF;" vertex="1" parent="1">
          <mxGeometry x="483" y="348.5" width="15" height="40" as="geometry" />
        </mxCell>
        <mxCell id="uJVuhmTzln1EmqS2y94v-245" style="edgeStyle=orthogonalEdgeStyle;rounded=0;orthogonalLoop=1;jettySize=auto;html=1;exitX=1;exitY=0.5;exitDx=0;exitDy=0;entryX=0;entryY=0.5;entryDx=0;entryDy=0;" edge="1" parent="1" source="uJVuhmTzln1EmqS2y94v-209" target="uJVuhmTzln1EmqS2y94v-215">
          <mxGeometry relative="1" as="geometry" />
        </mxCell>
        <mxCell id="uJVuhmTzln1EmqS2y94v-209" value="" style="rounded=0;whiteSpace=wrap;html=1;fillColor=#99FFFF;" vertex="1" parent="1">
          <mxGeometry x="483" y="408.5" width="15" height="20" as="geometry" />
        </mxCell>
        <mxCell id="uJVuhmTzln1EmqS2y94v-211" value="" style="rounded=0;whiteSpace=wrap;html=1;fillColor=#99FFFF;" vertex="1" parent="1">
          <mxGeometry x="514.5" y="253.5" width="10" height="60" as="geometry" />
        </mxCell>
        <mxCell id="uJVuhmTzln1EmqS2y94v-213" value="" style="rounded=0;whiteSpace=wrap;html=1;fillColor=#99FFFF;" vertex="1" parent="1">
          <mxGeometry x="512" y="348.5" width="15" height="40" as="geometry" />
        </mxCell>
        <mxCell id="uJVuhmTzln1EmqS2y94v-215" value="" style="rounded=0;whiteSpace=wrap;html=1;fillColor=#99FFFF;" vertex="1" parent="1">
          <mxGeometry x="512" y="408.5" width="15" height="20" as="geometry" />
        </mxCell>
        <mxCell id="uJVuhmTzln1EmqS2y94v-248" style="edgeStyle=orthogonalEdgeStyle;rounded=0;orthogonalLoop=1;jettySize=auto;html=1;exitX=1;exitY=0.5;exitDx=0;exitDy=0;" edge="1" parent="1" source="uJVuhmTzln1EmqS2y94v-217">
          <mxGeometry relative="1" as="geometry">
            <mxPoint x="514" y="456.5" as="targetPoint" />
          </mxGeometry>
        </mxCell>
        <mxCell id="uJVuhmTzln1EmqS2y94v-217" value="" style="rounded=0;whiteSpace=wrap;html=1;fillColor=#99FFFF;" vertex="1" parent="1">
          <mxGeometry x="488.5" y="446.5" width="4.5" height="20" as="geometry" />
        </mxCell>
        <mxCell id="uJVuhmTzln1EmqS2y94v-218" value="" style="rounded=0;whiteSpace=wrap;html=1;fillColor=#99FFFF;" vertex="1" parent="1">
          <mxGeometry x="514.5" y="446.5" width="4.5" height="20" as="geometry" />
        </mxCell>
        <mxCell id="uJVuhmTzln1EmqS2y94v-222" value="" style="endArrow=classic;html=1;rounded=0;exitX=1;exitY=0.5;exitDx=0;exitDy=0;" edge="1" parent="1" source="uJVuhmTzln1EmqS2y94v-186">
          <mxGeometry width="50" height="50" relative="1" as="geometry">
            <mxPoint x="594" y="367.5" as="sourcePoint" />
            <mxPoint x="484" y="367.5" as="targetPoint" />
          </mxGeometry>
        </mxCell>
        <mxCell id="uJVuhmTzln1EmqS2y94v-223" value="" style="endArrow=classic;html=1;rounded=0;exitX=1;exitY=0.5;exitDx=0;exitDy=0;entryX=0;entryY=0.5;entryDx=0;entryDy=0;" edge="1" parent="1" source="uJVuhmTzln1EmqS2y94v-188" target="uJVuhmTzln1EmqS2y94v-209">
          <mxGeometry width="50" height="50" relative="1" as="geometry">
            <mxPoint x="734" y="367.5" as="sourcePoint" />
            <mxPoint x="784" y="317.5" as="targetPoint" />
          </mxGeometry>
        </mxCell>
        <mxCell id="uJVuhmTzln1EmqS2y94v-225" value="" style="endArrow=classic;html=1;rounded=0;entryX=0;entryY=0.5;entryDx=0;entryDy=0;" edge="1" parent="1" target="uJVuhmTzln1EmqS2y94v-186">
          <mxGeometry width="50" height="50" relative="1" as="geometry">
            <mxPoint x="424" y="285.5" as="sourcePoint" />
            <mxPoint x="706" y="258.5" as="targetPoint" />
          </mxGeometry>
        </mxCell>
        <mxCell id="uJVuhmTzln1EmqS2y94v-226" value="" style="endArrow=classic;html=1;rounded=0;exitX=1;exitY=0.5;exitDx=0;exitDy=0;entryX=0;entryY=0.5;entryDx=0;entryDy=0;" edge="1" parent="1" source="uJVuhmTzln1EmqS2y94v-48" target="uJVuhmTzln1EmqS2y94v-188">
          <mxGeometry width="50" height="50" relative="1" as="geometry">
            <mxPoint x="684" y="285.5" as="sourcePoint" />
            <mxPoint x="734" y="235.5" as="targetPoint" />
          </mxGeometry>
        </mxCell>
        <mxCell id="uJVuhmTzln1EmqS2y94v-227" value="" style="endArrow=classic;html=1;rounded=0;exitX=1;exitY=0.5;exitDx=0;exitDy=0;entryX=0;entryY=0.5;entryDx=0;entryDy=0;" edge="1" parent="1" source="uJVuhmTzln1EmqS2y94v-48" target="uJVuhmTzln1EmqS2y94v-190">
          <mxGeometry width="50" height="50" relative="1" as="geometry">
            <mxPoint x="626" y="312.5" as="sourcePoint" />
            <mxPoint x="676" y="262.5" as="targetPoint" />
          </mxGeometry>
        </mxCell>
        <mxCell id="uJVuhmTzln1EmqS2y94v-228" value="" style="endArrow=classic;html=1;rounded=0;entryX=0;entryY=0.5;entryDx=0;entryDy=0;" edge="1" parent="1" target="uJVuhmTzln1EmqS2y94v-184">
          <mxGeometry width="50" height="50" relative="1" as="geometry">
            <mxPoint x="425" y="367.5" as="sourcePoint" />
            <mxPoint x="475" y="317.5" as="targetPoint" />
          </mxGeometry>
        </mxCell>
        <mxCell id="uJVuhmTzln1EmqS2y94v-229" value="" style="endArrow=classic;html=1;rounded=0;exitX=1;exitY=0.5;exitDx=0;exitDy=0;" edge="1" parent="1" source="uJVuhmTzln1EmqS2y94v-56">
          <mxGeometry width="50" height="50" relative="1" as="geometry">
            <mxPoint x="714" y="355.5" as="sourcePoint" />
            <mxPoint x="454" y="415.5" as="targetPoint" />
          </mxGeometry>
        </mxCell>
        <mxCell id="uJVuhmTzln1EmqS2y94v-230" value="" style="endArrow=classic;html=1;rounded=0;exitX=1;exitY=0.5;exitDx=0;exitDy=0;entryX=0;entryY=0.25;entryDx=0;entryDy=0;" edge="1" parent="1" source="uJVuhmTzln1EmqS2y94v-56" target="uJVuhmTzln1EmqS2y94v-190">
          <mxGeometry width="50" height="50" relative="1" as="geometry">
            <mxPoint x="694" y="363.5" as="sourcePoint" />
            <mxPoint x="744" y="313.5" as="targetPoint" />
          </mxGeometry>
        </mxCell>
        <mxCell id="uJVuhmTzln1EmqS2y94v-231" value="" style="endArrow=classic;html=1;rounded=0;entryX=0;entryY=0.5;entryDx=0;entryDy=0;" edge="1" parent="1" target="uJVuhmTzln1EmqS2y94v-184">
          <mxGeometry width="50" height="50" relative="1" as="geometry">
            <mxPoint x="424" y="415.5" as="sourcePoint" />
            <mxPoint x="764" y="317.5" as="targetPoint" />
          </mxGeometry>
        </mxCell>
        <mxCell id="uJVuhmTzln1EmqS2y94v-232" value="" style="endArrow=classic;html=1;rounded=0;entryX=0;entryY=0.5;entryDx=0;entryDy=0;" edge="1" parent="1" target="uJVuhmTzln1EmqS2y94v-186">
          <mxGeometry width="50" height="50" relative="1" as="geometry">
            <mxPoint x="424" y="415.5" as="sourcePoint" />
            <mxPoint x="774" y="325.5" as="targetPoint" />
          </mxGeometry>
        </mxCell>
        <mxCell id="uJVuhmTzln1EmqS2y94v-233" value="" style="endArrow=classic;html=1;rounded=0;entryX=0;entryY=0.5;entryDx=0;entryDy=0;" edge="1" parent="1" target="uJVuhmTzln1EmqS2y94v-190">
          <mxGeometry width="50" height="50" relative="1" as="geometry">
            <mxPoint x="424" y="415.5" as="sourcePoint" />
            <mxPoint x="791" y="344.5" as="targetPoint" />
          </mxGeometry>
        </mxCell>
        <mxCell id="uJVuhmTzln1EmqS2y94v-235" style="edgeStyle=orthogonalEdgeStyle;rounded=0;orthogonalLoop=1;jettySize=auto;html=1;exitX=1;exitY=0.5;exitDx=0;exitDy=0;entryX=0;entryY=0.5;entryDx=0;entryDy=0;" edge="1" parent="1" target="uJVuhmTzln1EmqS2y94v-236">
          <mxGeometry relative="1" as="geometry">
            <mxPoint x="525.5" y="284.5" as="sourcePoint" />
            <mxPoint x="545.5" y="284.5" as="targetPoint" />
          </mxGeometry>
        </mxCell>
        <mxCell id="uJVuhmTzln1EmqS2y94v-263" style="edgeStyle=orthogonalEdgeStyle;rounded=0;orthogonalLoop=1;jettySize=auto;html=1;exitX=1;exitY=0.5;exitDx=0;exitDy=0;entryX=0;entryY=0.5;entryDx=0;entryDy=0;" edge="1" parent="1" source="uJVuhmTzln1EmqS2y94v-236" target="uJVuhmTzln1EmqS2y94v-49">
          <mxGeometry relative="1" as="geometry" />
        </mxCell>
        <mxCell id="uJVuhmTzln1EmqS2y94v-236" value="" style="rounded=0;whiteSpace=wrap;html=1;fillColor=#99FFFF;" vertex="1" parent="1">
          <mxGeometry x="558.5" y="254.5" width="10" height="60" as="geometry" />
        </mxCell>
        <mxCell id="uJVuhmTzln1EmqS2y94v-237" style="edgeStyle=orthogonalEdgeStyle;rounded=0;orthogonalLoop=1;jettySize=auto;html=1;exitX=1;exitY=0.5;exitDx=0;exitDy=0;entryX=0;entryY=0.5;entryDx=0;entryDy=0;" edge="1" parent="1" target="uJVuhmTzln1EmqS2y94v-238">
          <mxGeometry relative="1" as="geometry">
            <mxPoint x="528.5" y="369.5" as="sourcePoint" />
          </mxGeometry>
        </mxCell>
        <mxCell id="uJVuhmTzln1EmqS2y94v-238" value="" style="rounded=0;whiteSpace=wrap;html=1;fillColor=#99FFFF;" vertex="1" parent="1">
          <mxGeometry x="556" y="349.5" width="15" height="40" as="geometry" />
        </mxCell>
        <mxCell id="uJVuhmTzln1EmqS2y94v-239" style="edgeStyle=orthogonalEdgeStyle;rounded=0;orthogonalLoop=1;jettySize=auto;html=1;exitX=1;exitY=0.5;exitDx=0;exitDy=0;entryX=0;entryY=0.5;entryDx=0;entryDy=0;" edge="1" parent="1" target="uJVuhmTzln1EmqS2y94v-240">
          <mxGeometry relative="1" as="geometry">
            <mxPoint x="528.5" y="419.5" as="sourcePoint" />
          </mxGeometry>
        </mxCell>
        <mxCell id="uJVuhmTzln1EmqS2y94v-240" value="" style="rounded=0;whiteSpace=wrap;html=1;fillColor=#99FFFF;" vertex="1" parent="1">
          <mxGeometry x="556" y="409.5" width="15" height="20" as="geometry" />
        </mxCell>
        <mxCell id="uJVuhmTzln1EmqS2y94v-241" style="edgeStyle=orthogonalEdgeStyle;rounded=0;orthogonalLoop=1;jettySize=auto;html=1;exitX=1;exitY=0.5;exitDx=0;exitDy=0;entryX=0;entryY=0.5;entryDx=0;entryDy=0;" edge="1" parent="1">
          <mxGeometry relative="1" as="geometry">
            <mxPoint x="520" y="457.5" as="sourcePoint" />
            <mxPoint x="558.5" y="457.5" as="targetPoint" />
          </mxGeometry>
        </mxCell>
        <mxCell id="uJVuhmTzln1EmqS2y94v-242" value="" style="rounded=0;whiteSpace=wrap;html=1;fillColor=#99FFFF;" vertex="1" parent="1">
          <mxGeometry x="558.5" y="447.5" width="4.5" height="20" as="geometry" />
        </mxCell>
        <mxCell id="uJVuhmTzln1EmqS2y94v-249" value="" style="endArrow=classic;html=1;rounded=0;entryX=0;entryY=0.5;entryDx=0;entryDy=0;" edge="1" parent="1" target="uJVuhmTzln1EmqS2y94v-238">
          <mxGeometry width="50" height="50" relative="1" as="geometry">
            <mxPoint x="524" y="285.5" as="sourcePoint" />
            <mxPoint x="694" y="257.5" as="targetPoint" />
          </mxGeometry>
        </mxCell>
        <mxCell id="uJVuhmTzln1EmqS2y94v-250" value="" style="endArrow=classic;html=1;rounded=0;entryX=0;entryY=0.5;entryDx=0;entryDy=0;" edge="1" parent="1" target="uJVuhmTzln1EmqS2y94v-240">
          <mxGeometry width="50" height="50" relative="1" as="geometry">
            <mxPoint x="524" y="285.5" as="sourcePoint" />
            <mxPoint x="744" y="285.5" as="targetPoint" />
          </mxGeometry>
        </mxCell>
        <mxCell id="uJVuhmTzln1EmqS2y94v-251" value="" style="endArrow=classic;html=1;rounded=0;entryX=0;entryY=0.5;entryDx=0;entryDy=0;" edge="1" parent="1" target="uJVuhmTzln1EmqS2y94v-242">
          <mxGeometry width="50" height="50" relative="1" as="geometry">
            <mxPoint x="524" y="285.5" as="sourcePoint" />
            <mxPoint x="764" y="295" as="targetPoint" />
          </mxGeometry>
        </mxCell>
        <mxCell id="uJVuhmTzln1EmqS2y94v-252" value="" style="endArrow=classic;html=1;rounded=0;exitX=1;exitY=0.5;exitDx=0;exitDy=0;entryX=0;entryY=0.5;entryDx=0;entryDy=0;" edge="1" parent="1" source="uJVuhmTzln1EmqS2y94v-213" target="uJVuhmTzln1EmqS2y94v-236">
          <mxGeometry width="50" height="50" relative="1" as="geometry">
            <mxPoint x="694" y="349.5" as="sourcePoint" />
            <mxPoint x="744" y="299.5" as="targetPoint" />
          </mxGeometry>
        </mxCell>
        <mxCell id="uJVuhmTzln1EmqS2y94v-253" value="" style="endArrow=classic;html=1;rounded=0;exitX=1;exitY=0.5;exitDx=0;exitDy=0;entryX=0;entryY=0.5;entryDx=0;entryDy=0;" edge="1" parent="1" source="uJVuhmTzln1EmqS2y94v-213" target="uJVuhmTzln1EmqS2y94v-240">
          <mxGeometry width="50" height="50" relative="1" as="geometry">
            <mxPoint x="704" y="349.5" as="sourcePoint" />
            <mxPoint x="754" y="299.5" as="targetPoint" />
          </mxGeometry>
        </mxCell>
        <mxCell id="uJVuhmTzln1EmqS2y94v-254" value="" style="endArrow=classic;html=1;rounded=0;exitX=1;exitY=0.5;exitDx=0;exitDy=0;entryX=0;entryY=0.5;entryDx=0;entryDy=0;" edge="1" parent="1" source="uJVuhmTzln1EmqS2y94v-213" target="uJVuhmTzln1EmqS2y94v-242">
          <mxGeometry width="50" height="50" relative="1" as="geometry">
            <mxPoint x="534" y="365.5" as="sourcePoint" />
            <mxPoint x="764" y="275.5" as="targetPoint" />
          </mxGeometry>
        </mxCell>
        <mxCell id="uJVuhmTzln1EmqS2y94v-255" value="" style="endArrow=classic;html=1;rounded=0;entryX=0;entryY=0.5;entryDx=0;entryDy=0;" edge="1" parent="1" target="uJVuhmTzln1EmqS2y94v-236">
          <mxGeometry width="50" height="50" relative="1" as="geometry">
            <mxPoint x="527" y="419.5" as="sourcePoint" />
            <mxPoint x="747" y="329.5" as="targetPoint" />
          </mxGeometry>
        </mxCell>
        <mxCell id="uJVuhmTzln1EmqS2y94v-256" value="" style="endArrow=classic;html=1;rounded=0;exitX=1;exitY=0.5;exitDx=0;exitDy=0;entryX=0;entryY=0.5;entryDx=0;entryDy=0;" edge="1" parent="1" source="uJVuhmTzln1EmqS2y94v-215" target="uJVuhmTzln1EmqS2y94v-238">
          <mxGeometry width="50" height="50" relative="1" as="geometry">
            <mxPoint x="734" y="375.5" as="sourcePoint" />
            <mxPoint x="784" y="325.5" as="targetPoint" />
          </mxGeometry>
        </mxCell>
        <mxCell id="uJVuhmTzln1EmqS2y94v-257" value="" style="endArrow=classic;html=1;rounded=0;exitX=1;exitY=0.5;exitDx=0;exitDy=0;entryX=0;entryY=0.5;entryDx=0;entryDy=0;" edge="1" parent="1" source="uJVuhmTzln1EmqS2y94v-215" target="uJVuhmTzln1EmqS2y94v-242">
          <mxGeometry width="50" height="50" relative="1" as="geometry">
            <mxPoint x="734" y="375.5" as="sourcePoint" />
            <mxPoint x="784" y="325.5" as="targetPoint" />
          </mxGeometry>
        </mxCell>
        <mxCell id="uJVuhmTzln1EmqS2y94v-258" value="" style="endArrow=classic;html=1;rounded=0;exitX=1;exitY=0.5;exitDx=0;exitDy=0;entryX=0;entryY=0.5;entryDx=0;entryDy=0;" edge="1" parent="1" source="uJVuhmTzln1EmqS2y94v-218" target="uJVuhmTzln1EmqS2y94v-236">
          <mxGeometry width="50" height="50" relative="1" as="geometry">
            <mxPoint x="694" y="375.5" as="sourcePoint" />
            <mxPoint x="744" y="325.5" as="targetPoint" />
          </mxGeometry>
        </mxCell>
        <mxCell id="uJVuhmTzln1EmqS2y94v-259" value="" style="endArrow=classic;html=1;rounded=0;exitX=1;exitY=0.5;exitDx=0;exitDy=0;entryX=0;entryY=0.5;entryDx=0;entryDy=0;" edge="1" parent="1" source="uJVuhmTzln1EmqS2y94v-218" target="uJVuhmTzln1EmqS2y94v-238">
          <mxGeometry width="50" height="50" relative="1" as="geometry">
            <mxPoint x="704" y="392.5" as="sourcePoint" />
            <mxPoint x="754" y="342.5" as="targetPoint" />
          </mxGeometry>
        </mxCell>
        <mxCell id="uJVuhmTzln1EmqS2y94v-260" value="" style="endArrow=classic;html=1;rounded=0;exitX=1;exitY=0.5;exitDx=0;exitDy=0;entryX=0;entryY=0.5;entryDx=0;entryDy=0;" edge="1" parent="1" source="uJVuhmTzln1EmqS2y94v-218" target="uJVuhmTzln1EmqS2y94v-240">
          <mxGeometry width="50" height="50" relative="1" as="geometry">
            <mxPoint x="724" y="399.5" as="sourcePoint" />
            <mxPoint x="774" y="349.5" as="targetPoint" />
          </mxGeometry>
        </mxCell>
        <mxCell id="uJVuhmTzln1EmqS2y94v-266" value="" style="endArrow=classic;html=1;rounded=0;entryX=0;entryY=0.5;entryDx=0;entryDy=0;" edge="1" parent="1" target="uJVuhmTzln1EmqS2y94v-49">
          <mxGeometry width="50" height="50" relative="1" as="geometry">
            <mxPoint x="571" y="370" as="sourcePoint" />
            <mxPoint x="621" y="320" as="targetPoint" />
          </mxGeometry>
        </mxCell>
        <mxCell id="uJVuhmTzln1EmqS2y94v-268" value="" style="endArrow=classic;html=1;rounded=0;exitX=1;exitY=0.5;exitDx=0;exitDy=0;entryX=0;entryY=0.5;entryDx=0;entryDy=0;" edge="1" parent="1" source="uJVuhmTzln1EmqS2y94v-240" target="uJVuhmTzln1EmqS2y94v-49">
          <mxGeometry width="50" height="50" relative="1" as="geometry">
            <mxPoint x="722" y="605" as="sourcePoint" />
            <mxPoint x="772" y="555" as="targetPoint" />
          </mxGeometry>
        </mxCell>
        <mxCell id="uJVuhmTzln1EmqS2y94v-269" value="" style="endArrow=classic;html=1;rounded=0;exitX=1;exitY=0.5;exitDx=0;exitDy=0;entryX=0;entryY=0.5;entryDx=0;entryDy=0;" edge="1" parent="1" source="uJVuhmTzln1EmqS2y94v-242" target="uJVuhmTzln1EmqS2y94v-49">
          <mxGeometry width="50" height="50" relative="1" as="geometry">
            <mxPoint x="722" y="598" as="sourcePoint" />
            <mxPoint x="772" y="548" as="targetPoint" />
          </mxGeometry>
        </mxCell>
        <mxCell id="uJVuhmTzln1EmqS2y94v-271" value="" style="endArrow=classic;html=1;rounded=0;" edge="1" parent="1">
          <mxGeometry width="50" height="50" relative="1" as="geometry">
            <mxPoint x="162" y="284" as="sourcePoint" />
            <mxPoint x="197" y="284" as="targetPoint" />
          </mxGeometry>
        </mxCell>
      </root>
    </mxGraphModel>
  </diagram>
</mxfile>
